<?xml version="1.0" encoding="utf-8"?>
<!-- Generator: Adobe Illustrator 25.2.3, SVG Export Plug-In . SVG Version: 6.00 Build 0)  -->
<svg version="1.1" id="Layer_1" xmlns="http://www.w3.org/2000/svg" xmlns:xlink="http://www.w3.org/1999/xlink" x="0px" y="0px"
	 viewBox="0 0 595.28 595.28" style="enable-background:new 0 0 595.28 595.28;" xml:space="preserve">
<style type="text/css">
	.st0{fill-rule:evenodd;clip-rule:evenodd;}
</style>
<g>
	<path class="st0" d="M301.05,297.96l2.64-5.1l14.16-0.38c2.36-0.19,4.53-0.75,6.23-1.89c0.85-0.85,0.94-1.79,0.28-3.02l-2.64-3.3
		l-3.4-1.89l-28.7,1.98c-1.51,0-2.17,0.38-2.36,1.13l0.66,2.08l1.13,1.79c0.47,0.38,1.04,0.66,2.17,0.76l2.83,0.57
		c0.75,0.09,1.04,0.57,0.75,0.94l-3.3,8.21H290c-0.85-0.19-1.42,0.09-1.89,0.66l-0.47,3.12l0.76,3.68c0.19,0.47-0.38,1.51-1.32,3.02
		c-0.94,1.42-1.61,3.68-1.98,6.52c-0.28,2.74-0.19,4.72,0.47,6.23l3.78,4.91c1.51,1.42,3.59,1.89,6.42,1.51l8.97-2.27l8.31-3.78
		l4.16-2.55c0.75-0.85,1.04-1.7,0.94-2.64c-0.19-1.13-1.13-2.36-2.83-3.49l-3.97-0.28l-12.46,2.27l-3.49,0.09l0.19-2.64l1.6-4.34
		l1.32-2.55l3.21-0.47l11.99-0.57c1.7-0.09,2.55-0.47,2.64-1.04l0.19-3.02l-0.57-2.27l-12.37-0.75
		C301.71,299,300.96,298.62,301.05,297.96L301.05,297.96z"/>
	<path class="st0" d="M333.91,297.3l6.8-10.01l0.66-3.96c0-1.32-0.47-2.08-1.42-2.08l-3.49,3.02l-10.57,14.45
		c-1.51,2.55-2.55,4.72-2.93,6.51c-0.76,2.74-0.85,5.38-0.57,7.74c0.28,2.45,0.75,4.34,1.51,5.66l3.87,5.19l1.61,1.23l-5.1,23.23
		c-0.66,4.72-0.76,9.44-0.57,13.97l2.08,2.55l3.87,2.55l3.49,0.28c0.38-0.28,0.57-1.89,0.57-4.72l1.04-12.84
		c0.66-5.85,2.17-12.94,4.44-21.43l3.21-0.76c1.98-0.09,4.34-0.94,6.89-2.17l5.57-3.49c2.55-1.7,5-4.44,7.27-8.31
		c2.27-3.78,3.78-8.97,4.34-15.58c0.09-1.98-0.19-4.25-0.85-6.61c-0.66-2.36-1.51-4.25-2.64-5.57c-1.23-1.51-2.55-1.79-4.06-1.13
		c-6.89,3.78-12.09,7.84-15.48,11.99c-3.3,4.15-5.76,7.93-7.08,11.14l-2.64,5.66c-0.94,0.76-2.08-0.28-3.3-3.12
		c-0.76-2.27-0.66-4.53,0.28-7.08C331.64,301.08,332.78,299,333.91,297.3L333.91,297.3z M360.25,294.56
		c1.23-0.09,2.08,0.47,2.46,1.6c0.38,1.23,0.38,2.74,0.09,4.34l-1.32,4.06c-2.55,3.97-4.72,6.8-6.42,8.4l-4.15,3.12l-2.45,1.04
		l-3.4,0.94c-0.85,0.19-1.42,0-1.61-0.57l2.08-4.25l10.29-15.01C357.61,296.17,359.03,295.03,360.25,294.56L360.25,294.56z"/>
	<path class="st0" d="M375.74,282.19c0.38,1.51,0.38,3.68-0.19,6.61l-8.12,24.55c-1.42,4.34-1.51,7.93-0.57,10.95
		c0.94,2.93,2.83,4.91,5.38,6.04c3.3,1.32,6.14,1.98,8.4,1.79c2.36-0.09,4.34-0.47,5.85-1.13l3.59-2.08l3.49-3.59l1.51-4.15
		c0.09-1.32-0.28-2.27-0.94-2.83l-5.1,0.09l-5.19,1.61l-2.93,0.57l-2.83-0.38c-0.66-0.38-0.94-1.32-0.66-3.12l4.82-17.28
		c0.94-3.97,1.23-7.65,0.94-11.33c-0.09-1.32-0.76-2.83-1.89-4.53l-3.49-4.15l-2.64-0.19L375.74,282.19L375.74,282.19z"/>
	<path class="st0" d="M429.94,288.05c-1.89-3.12-4.15-5.57-6.8-7.27c-0.94-0.94-2.27-1.23-4.06-1.13l-5.38,1.79l-3.78,2.83
		c-3.49,5.1-5.76,9.54-6.99,13.41l-1.98,7.27l-1.7-0.09c-0.85-0.75-1.61-1.23-2.36-1.42l-1.13,0.19v1.79l1.7,6.89l0.57,0.85
		l0.47,0.47l-0.76,8.59c0.09,1.89,0.76,3.78,2.27,5.57c1.32,1.7,3.12,2.64,5.29,2.55c0.94-0.19,1.32-1.23,1.32-3.02l-0.19-5.85
		c0-1.51,0.19-2.74,0.47-3.97c0.28-1.13,0.47-1.79,0.94-1.98l17.56-2.36l0.09,13.22c0.19,2.08,0.47,3.12,1.13,3.49l3.59,0.57
		l4.72-3.59c1.32-1.6,2.17-3.97,2.27-6.89v-8.69l-0.76-6.7l-2.08-7.18L429.94,288.05L429.94,288.05z M413.22,292.48
		c1.04-2.08,2.27-3.3,3.59-3.78c1.51-0.47,2.83,0.38,3.87,2.55l2.74,7.37l1.42,6.7l-15.67,0.85c0.09-2.17,0.66-4.44,1.32-6.99
		L413.22,292.48L413.22,292.48z"/>
	<path class="st0" d="M449.57,288.8c-1.23,0.85-1.89,1.79-2.27,2.83l-5.1,19.45c-0.94,4.72-1.51,9.44-1.61,13.88
		c0.19,2.55,1.7,3.87,4.25,4.16c1.23,0,1.98-0.47,2.45-1.32l0.66-2.55l1.98-11.71c0.57-2.74,1.23-5.1,1.89-7.18
		c0.66-1.98,1.23-3.02,1.89-3.21l1.7,2.64l7.55,17.56l3.78,4.25c1.32,0.94,2.93,1.23,4.72,0.85l2.83-1.51
		c1.32-0.85,2.64-2.55,3.87-5.1c1.23-2.55,1.98-6.42,2.36-11.52c0.19-5.76-0.19-10.48-1.32-14.26c-0.94-3.87-2.17-6.89-3.3-8.88
		l-2.74-3.87c-0.94-1.13-1.98-1.79-3.12-2.08c-0.85-0.09-1.61,0.28-1.79,1.23c-0.19,0.57,0.09,1.79,0.47,3.49l2.27,16.52l-0.19,9.72
		l-0.75,0.19c-0.66-0.09-1.7-1.61-3.02-4.15l-9.73-17.66c-1.61-2.46-3.02-3.49-4.25-3.4L449.57,288.8L449.57,288.8z"/>
	<path class="st0" d="M482.72,288.52c-0.66,1.13-0.94,2.08-0.66,3.02c0.28,1.32,0.85,2.08,1.51,2.55l1.7,0.09l0.57-0.66v-1.23
		c-0.19-0.66,0-1.32,0.66-1.89c0.66-0.38,1.51-0.76,2.46-0.94l7.84,0.94c2.74,0.94,5.19,2.08,7.18,3.21l4.53,3.02
		c3.68,2.64,6.33,5.48,8.21,8.4c1.89,2.83,3.12,5.57,3.49,7.93c0.38,2.45,0.38,4.15-0.28,5.38c-0.66,1.23-1.89,1.98-3.87,2.64
		l-6.99,0.94l-7.84-0.94l0.19-21.34c0-0.94-0.28-1.61-0.94-2.08l-2.74-0.47c-1.04,0.47-1.98,1.51-2.64,3.4
		c-0.66,1.7-1.32,3.87-1.7,6.23l-1.23,9.06c-0.19,0.38-0.57,0.28-1.23-0.57l-1.98-2.27c-0.47-0.66-1.13-0.76-2.08-0.66
		c-0.76,0.09-1.32,0.57-1.7,1.32l-0.66,2.17c-0.47,1.23-0.47,2.64-0.19,4.25c0.28,1.7,1.13,3.3,2.55,4.91l5,3.49
		c0.28,1.98,0.75,3.68,1.6,5.19c0.76,1.51,1.98,2.17,3.78,1.98l3.21-0.47c0.76-0.28,1.51-1.51,1.89-3.49l11.24-1.51
		c3.49-1.23,6.04-2.64,7.65-4.16c3.68-3.3,6.04-6.7,7.27-9.82c1.13-3.02,1.51-5.85,1.04-8.4c-0.47-2.55-1.32-4.72-2.36-6.52
		c-2.46-3.87-5.38-7.08-8.97-9.63c-3.68-2.55-7.46-4.34-11.33-5.48l-10.76-2.17l-7.46,0.76
		C485.45,286.16,483.38,287.29,482.72,288.52L482.72,288.52z"/>
	<path class="st0" d="M546.92,318.36c-1.32-1.32-3.11-1.98-5.1-1.98c-1.98,0-3.78,0.66-5.1,1.98c-1.51,1.32-2.17,3.12-2.17,5.1
		c0,2.17,0.66,3.87,2.17,5.19c1.32,1.42,3.11,2.08,5.1,2.17c1.98-0.1,3.78-0.76,5.1-2.17c1.51-1.32,2.08-3.02,2.08-5.19
		C549,321.47,548.43,319.68,546.92,318.36L546.92,318.36z M541.82,317.41c1.7,0,3.12,0.57,4.25,1.79c1.04,1.04,1.61,2.55,1.79,4.25
		c-0.19,1.89-0.75,3.4-1.79,4.53c-1.13,1.13-2.55,1.61-4.25,1.79c-1.79-0.19-3.12-0.66-4.15-1.89c-1.23-1.04-1.79-2.55-1.79-4.44
		c0-1.7,0.57-3.12,1.6-4.25C538.71,317.98,540.03,317.41,541.82,317.41L541.82,317.41z"/>
	<path class="st0" d="M545.22,321.75c0-1.7-0.94-2.45-2.83-2.45h-3.4v8.5h1.32v-3.68h1.32l2.45,3.68h1.32l-2.36-3.78
		C544.28,324.02,545.13,323.17,545.22,321.75L545.22,321.75z M543.34,320.62l0.66,1.13l-0.66,1.13l-3.02,0.19v-2.74h1.79
		L543.34,320.62L543.34,320.62z"/>
	<path class="st0" d="M521.15,344.04c-2.55,0-4.72,0.47-6.33,1.42c-1.51,0.94-2.27,2.17-2.27,3.78c0,1.23,0.57,2.46,1.51,3.4
		l2.08,1.32l5.01,1.61c2.27,0.57,3.21,1.23,3.11,1.98c0,1.13-1.13,1.61-3.4,1.79l-4.25-0.85l-1.7-0.47l-1.98-0.94v3.87l1.98,0.76
		l6.04,0.94c2.74,0,4.91-0.47,6.52-1.42c1.61-0.94,2.36-2.36,2.36-3.97c0.19-2.64-1.98-4.53-6.23-5.76l-1.79-0.47
		c-2.55-0.75-3.78-1.51-3.78-2.17c0.19-0.94,1.23-1.32,3.49-1.51l6.89,1.61l0.28,0.19v-3.68
		C526.15,344.51,523.6,344.04,521.15,344.04L521.15,344.04z"/>
	<polygon class="st0" points="484.04,344.23 484.04,362.35 489.89,362.35 489.89,344.23 484.04,344.23 	"/>
	<path class="st0" d="M420.4,362.35l-10.01-18.22h-6.61l-9.16,18.22h5.95l1.7-3.59h10.1l1.89,3.59H420.4L420.4,362.35z
		 M407.18,348.57l3.59,6.99h-6.99L407.18,348.57L407.18,348.57z"/>
	<path class="st0" d="M455.43,345.08l-2.27-0.66l-12.46-0.28v18.22h5.76v-7.36h2.46c1.23,0.47,2.17,1.32,3.11,2.83l2.55,4.53h6.14
		l-2.93-5.1c-0.94-1.79-2.08-3.02-3.21-3.49l1.79-0.94c1.23-0.85,1.89-1.98,2.08-3.4C458.26,347.63,457.32,346.12,455.43,345.08
		L455.43,345.08z M446.46,347.53h2.83c2.17,0,3.21,0.66,3.21,1.98c-0.09,1.23-0.94,1.98-2.55,2.17h-3.49V347.53L446.46,347.53z"/>
	<path class="st0" d="M374.23,345.08l-1.98-0.66l-12.28-0.19v18.13h5.76v-7.18l6.61-0.19l2.17-0.66c2.17-1.04,3.21-2.64,3.21-4.72
		C377.63,347.63,376.49,346.02,374.23,345.08L374.23,345.08z M365.73,347.63h2.08c2.83-0.09,4.25,0.57,4.16,1.98
		c0.09,1.51-1.32,2.36-4.34,2.17h-1.89V347.63L365.73,347.63z"/>
	<path class="st0" d="M74.07,228.28l-16.43,1.23c-4.06,0.75-6.7,1.6-7.93,2.36l-3.78,3.4l-2.17,3.78c0.19,1.7,0.94,2.93,2.46,3.3
		l3.87,0.57l3.12-0.47c0.94-0.19,1.32-0.75,1.42-1.6l-0.47-1.32l-1.42-0.47l-2.55,0.38c-1.13,0.09-1.7-0.28-1.79-1.23
		c0.09-0.66,1.04-1.04,3.02-1.51l16.81-1.32c13.41,0.19,25.97,2.17,37.3,6.23c11.61,3.87,21.62,8.97,30.4,15.3
		c8.69,6.23,15.39,12.84,20.3,19.73c4.82,6.8,7.18,13.22,7.36,19.26c0,4.72-1.32,9.16-4.06,13.22c-2.64,4.06-6.7,7.27-11.9,9.63
		c-5.38,2.55-11.99,3.78-19.92,3.97c-7.65-0.19-14.92-1.13-21.9-2.83l-0.47-29.55l15.58,0.75l10.86,2.27
		c3.02,0.94,4.63,1.89,4.81,3.12c-0.19,1.79-0.85,2.93-2.27,3.87l-3.4,1.79c-0.57,0.28-0.66,0.57-0.28,0.85l1.13,0.76l3.49,0.85
		c1.32,0,2.83-0.47,4.25-1.23c1.51-0.85,2.83-1.89,4.06-3.4c1.23-1.42,1.7-2.93,1.7-4.72c0-2.55-1.13-5.1-3.59-7.36
		c-2.45-2.36-6.04-4.44-11.05-5.85c-4.91-1.51-11.14-2.36-18.6-2.45l-6.7,0.28l0.19-9.82c0.09-2.55-0.19-5-1.04-7.27
		c-0.85-2.36-1.6-4.15-2.55-5.1c-0.85-0.94-1.61-1.42-2.27-1.32c-0.85,0.09-1.51,0.75-2.08,2.17l-2.55,13.41l-0.38,9.25l-14.64,3.12
		c-4.72,1.32-8.59,2.93-11.71,4.91c-3.02,2.08-4.82,4.34-4.91,6.89c0.09,2.83,1.42,5.95,4.15,9.25c2.83,3.21,6.42,6.42,11.05,9.63
		c4.53,3.12,9.63,6.04,15.3,8.59l0.28,4.34c0,1.61,0.38,3.21,1.04,4.82c0.66,1.79,2.55,2.74,5.38,2.83
		c1.89-0.09,3.12-0.85,3.97-2.17c0.85-1.32,1.23-2.93,1.42-4.91c7.18,2.27,14.07,3.49,20.68,3.59c8.12,0,15.96-1.51,23.32-4.44
		c7.36-2.93,13.6-7.08,18.22-12.65c4.91-5.29,7.46-11.8,7.55-19.17c-0.09-7.55-3.21-15.2-9.16-23.13
		c-5.76-7.74-13.69-15.01-23.42-21.72c-9.82-6.7-20.68-11.99-32.67-16.24C98.52,230.54,86.43,228.37,74.07,228.28L74.07,228.28z
		 M67.27,295.88c0.19-1.13,1.51-2.27,4.06-2.93l10.01-1.7l12.94-0.66l-0.57,25.3c-7.93-3.02-14.35-6.52-19.07-10.29
		C69.82,301.83,67.46,298.62,67.27,295.88L67.27,295.88z"/>
	<path class="st0" d="M181.52,243.29c-3.87,2.55-6.99,5.95-9.35,9.91c-0.94,2.08-1.23,4.44-1.13,7.18c0.19,2.64,1.23,4.91,3.3,6.7
		c-0.94,1.23-1.13,2.55-0.75,3.97l1.13,3.02c1.04,0.38,1.89,0.38,2.36,0l1.42-1.79l1.89-1.89c6.42,1.79,12.46,1.42,18.22-1.23
		l8.97-5.85c3.02-2.46,5.29-4.82,6.89-7.37c1.7-2.55,2.17-4.82,1.23-6.89c-1.23-2.27-2.45-3.59-3.78-4.25l-3.68-0.85h-1.98
		c-1.23-4.72-5.38-6.61-12.18-5.67C189.64,239.04,185.48,240.74,181.52,243.29L181.52,243.29z M175.94,258.59
		c-0.28-0.94,0.19-2.27,1.42-3.87l4.15-4.06c1.79-1.42,3.68-2.55,5.38-3.21l3.68,0.19l-6.61,5.29l-6.8,7.84
		C176.61,260.38,176.04,259.53,175.94,258.59L175.94,258.59z M199.93,262.46l-3.78,1.42l-6.42,1.13c-2.27,0.19-4.44-0.09-6.33-0.94
		l7.65-7.74c2.83-2.93,5.66-5.19,8.78-6.89l8.4-0.09c1.51,1.04,2.08,2.45,1.51,4.15c-0.57,1.79-1.51,3.21-2.93,4.53
		c-1.42,1.23-2.74,2.17-3.97,2.83L199.93,262.46L199.93,262.46z"/>
	<path class="st0" d="M184.73,280.49l-1.7,1.89l-2.08,19.36c-0.38,6.99-0.38,13.97,0.28,20.96l1.13,1.79l2.93,1.13l2.74-0.19
		c1.42-0.66,2.27-1.6,2.55-2.55l0.19-1.42l-1.04-35.03c-0.57-2.74-1.32-4.44-2.27-5.29C186.52,280.4,185.67,280.11,184.73,280.49
		L184.73,280.49z"/>
	<path class="st0" d="M207.29,294.28c-1.98-0.66-3.02-1.13-3.21-1.61c-0.09-0.38,0.19-0.94,1.13-1.42l6.42-1.23l24.46-1.51
		l2.93-0.76l2.64-1.6c0.75-0.66,0.85-1.79,0.57-3.12c-0.28-0.66-1.23-1.23-2.93-1.6l-17.56-1.04l-9.16,0.66
		c-3.21,0.38-6.23,1.13-8.97,2.27c-2.83,1.23-4.91,2.83-6.33,4.81l-1.79,4.72c-0.38,1.7,0.28,3.78,1.79,5.85
		c1.98,1.42,4.63,2.17,8.03,2.36l10.39,0.38c3.59,0.09,7.08,0.94,10.39,2.17l4.06,1.42l3.68,2.08c0.85,0.85,1.04,1.98,0.47,3.49
		c-0.76,1.42-2.83,2.64-5.85,3.68l-11.33,2.08l-12.18-0.85l-2.55-1.51c-0.66-0.66-0.94-1.7-0.57-3.02c1.23-2.08,2.83-2.83,4.53-2.55
		c1.79,0.09,3.49,0.76,5.29,1.7l4.44,2.27l5.48,0.19l5.38-1.51c1.51-0.66,2.27-1.32,2.17-1.98c-0.47-0.94-2.17-1.98-5-3.12
		c-2.93-1.04-6.14-1.89-9.82-2.36l-9.35,0.28c-3.12,0.94-5.29,1.98-6.23,3.4c-0.94,1.51-1.32,3.12-1.42,5
		c0.28,3.12,1.42,5.48,3.78,7.37c2.08,2.08,4.53,3.4,7.36,4.34l7.37,1.7l9.25-0.38c3.21-0.38,6.23-1.23,8.78-2.46
		c2.55-1.13,4.34-2.55,5.29-4.25c1.23-2.27,1.79-4.82,1.89-7.37c0.19-2.74,0-5-0.66-6.7c-1.42-2.55-3.78-4.63-6.52-5.85l-9.54-2.55
		L207.29,294.28L207.29,294.28z"/>
	<path class="st0" d="M261.68,293.81l-6.7-8.78c-1.32-1.13-2.64-1.42-3.87-0.94c-1.51,0.94-2.55,3.02-3.49,6.04l-2.64,21.62
		l-0.28,9.06c0.09,1.98,0.38,3.3,0.76,3.87c1.61,1.42,2.83,1.89,3.78,1.42l2.27-1.7c0.47-0.38,0.66-1.89,0.85-4.44l0.76-17.56
		c0.28-2.55,0.66-3.87,1.13-4.06c0.94,0,1.89,1.04,2.83,3.12l7.18,15.58c1.51,2.55,3.21,4.44,5,5.66c1.23,0.76,2.64,1.04,4.25,0.85
		c1.7-0.09,3.3-1.42,5.01-3.87c2.45-3.78,3.78-7.65,4.06-11.8c0.09-3.97-0.19-7.74-0.85-11.05l-1.89-7.65
		c-0.66-2.64-1.89-5.19-3.59-7.74l-5-5.95c-1.7-1.42-2.93-1.89-3.59-1.42c-0.85,0.66-0.94,1.98-0.28,3.97l2.55,7.55
		c0.94,2.93,1.79,6.33,2.17,9.91l0.94,11.61c0,1.98-0.28,3.02-0.94,3.3l-3.12-3.49L261.68,293.81L261.68,293.81z"/>
</g>
</svg>
